<?xml version="1.0" encoding="iso-8859-1"?>
<!-- Generator: Adobe Illustrator 19.0.0, SVG Export Plug-In . SVG Version: 6.00 Build 0)  -->
<svg version="1.1" id="Capa_1" xmlns="http://www.w3.org/2000/svg" xmlns:xlink="http://www.w3.org/1999/xlink" x="0px" y="0px"
	 viewBox="0 0 512 512" style="enable-background:new 0 0 512 512;" xml:space="preserve">
<path style="fill:#FFC66C;" d="M202.028,145v-11.994c0-29.808,24.164-53.972,53.972-53.972l0,0
	c29.808,0,53.972,24.164,53.972,53.972V145H202.028z"/>
<g>
	<path style="fill:#FFEFD5;" d="M212,151.307L212,151.307c0-15.724,12.747-28.471,28.471-28.471c5.731,0,11.062,1.699,15.529,4.613
		c4.467-2.914,9.798-4.613,15.529-4.613l0,0c15.724,0,28.471,12.747,28.471,28.471l0,0v4.304v19.556c0,24.301-19.699,44-44,44l0,0
		c-24.301,0-44-19.699-44-44V155.61V151.307z"/>
	<path style="fill:#FFEFD5;" d="M400,459.605L400,459.605c0-16.626-10.175-31.558-25.648-37.641L364,417.895l-10.352,4.069
		C338.175,428.047,328,442.979,328,459.605l0,0l0,0c0-16.626-10.175-31.558-25.648-37.641L292,417.895l-10.352,4.069
		C266.175,428.047,256,442.979,256,459.605l0,0l0,0c0-16.626-10.175-31.558-25.648-37.641L220,417.895l-10.352,4.069
		C194.175,428.047,184,442.979,184,459.605l0,0l0,0c0-16.626-10.175-31.558-25.648-37.641L148,417.895l-10.352,4.069
		C122.175,428.047,112,442.979,112,459.605l0,0H400z"/>
</g>
<rect x="100" y="462" style="fill:#FF8E4B;" width="312" height="40"/>
<path style="fill:#FFC66C;" d="M385.5,428.387v-23.181c0-18.429-10.669-35.192-27.364-42.995l-9.497-4.439H163.361l-9.497,4.439
	c-16.695,7.803-27.364,24.566-27.364,42.995v23.181H385.5z"/>
<polygon style="fill:#FEDA9B;" points="223,90.167 256.127,10 289.254,90.167 "/>
<path style="fill:#FFEFD5;" d="M327.236,374.903l21.403-21.403v-75.76c0-9.729-5.863-18.499-14.853-22.217l-53.647-22.19v-19
	h-48.277v19l-53.647,22.19c-8.99,3.719-14.853,12.488-14.853,22.217V367l33.959,27h67.041c14.083,0,25.5-11.417,25.5-25.5l0,0
	h-63.25"/>
<path style="fill:#FFC66C;" d="M348.638,353.5v-75.76c0-9.729-5.863-18.499-14.853-22.217l-43.924-18.168l-92.541,92.541
	L196.861,342l29.75,26.5h63.25l1.705,4.133l35.67,2.27L348.638,353.5z"/>
<path d="M208.5,492c-2.63,0-5.21,1.069-7.07,2.93c-1.86,1.86-2.93,4.44-2.93,7.07s1.07,5.21,2.93,7.069
	c1.86,1.86,4.44,2.931,7.07,2.931s5.21-1.07,7.07-2.931c1.86-1.859,2.93-4.439,2.93-7.069s-1.07-5.21-2.93-7.07
	S211.13,492,208.5,492z"/>
<path d="M412,452h-2.565c-1.597-10.677-6.524-20.375-13.935-27.856v-18.939c0-22.215-13.004-42.647-33.13-52.055l-3.731-1.744
	V277.74c0-13.826-8.255-26.174-21.031-31.457L293.652,228.1c-0.016-0.007-0.032-0.013-0.049-0.02l-3.464-1.433v-9.678
	c12.113-9.91,19.861-24.967,19.861-41.803V197c0,5.522,4.477,10,10,10s10-4.478,10-10v-45.693c0-5.522-4.477-10-10-10
	c-0.009,0-0.018,0.001-0.028,0.001v-8.302c0-19.312-8.614-36.639-22.187-48.378L265.369,6.181C263.823,2.44,260.175,0,256.127,0
	s-7.696,2.44-9.242,6.181L214.61,84.285c-13.802,11.743-22.582,29.221-22.582,48.721v8.302c-0.009,0-0.018-0.001-0.028-0.001
	c-5.523,0-10,4.478-10,10V197c0,5.522,4.477,10,10,10s10-4.478,10-10v-21.834c0,16.836,7.748,31.893,19.861,41.803v9.678
	l-47.469,19.635c-12.776,5.284-21.031,17.632-21.031,31.458v73.666l-3.731,1.744c-20.125,9.407-33.13,29.84-33.13,52.055v18.939
	c-7.41,7.481-12.338,17.179-13.935,27.856H100c-5.523,0-10,4.478-10,10v40c0,5.522,4.477,10,10,10h69.5c5.523,0,10-4.478,10-10
	s-4.477-10-10-10H110v-20h292v20H250.5c-5.523,0-10,4.478-10,10s4.477,10,10,10H412c5.523,0,10-4.478,10-10v-40
	C422,456.478,417.523,452,412,452z M389.033,452h-50.067c2.376-9.327,9.046-17.076,18.34-20.729L364,428.64l6.693,2.631
	C379.987,434.924,386.657,442.673,389.033,452z M222,175.166c0,0,0-23.12,0-23.859c0-10.185,8.286-18.471,18.471-18.471
	c3.587,0,7.068,1.033,10.066,2.989c3.32,2.166,7.607,2.165,10.927-0.001c2.997-1.955,6.478-2.988,10.065-2.988
	c10.185,0,18.471,8.286,18.471,18.471c0,0.74,0,23.859,0,23.859c0,18.748-15.252,34-34,34S222,193.914,222,175.166z M256,89.034
	c21.361,0,39.205,15.313,43.151,35.535c-6.998-7.227-16.791-11.733-27.622-11.733c-5.388,0-10.663,1.12-15.529,3.271
	c-4.868-2.152-10.142-3.271-15.529-3.271c-10.831,0-20.624,4.506-27.622,11.733C216.795,104.347,234.639,89.034,256,89.034z
	 M256.127,36.185l14.256,34.5c-4.627-1.068-9.437-1.651-14.383-1.651c-4.846,0-9.562,0.56-14.102,1.586L256.127,36.185z
	 M202,154.999c0.009,0,0.018,0.001,0.028,0.001c0.001,0,0.002,0,0.003,0c-0.012,0.203-0.031,0.404-0.031,0.61V154.999z
	 M173.361,277.74c0-5.703,3.405-10.797,8.675-12.977l53.647-22.19c3.739-1.546,6.178-5.193,6.178-9.24v-6.058
	c4.51,1.225,9.247,1.891,14.139,1.891c4.892,0,9.629-0.666,14.139-1.891v6.058c0,2.607,1.017,5.045,2.737,6.866l-66.014,66.014V305
	c0-5.522-4.477-10-10-10s-10,4.478-10,10v37c0,2.853,1.218,5.569,3.349,7.467l29.75,26.5c1.832,1.632,4.199,2.533,6.651,2.533
	h49.584c-2.846,3.362-7.095,5.5-11.834,5.5h-63.55l-27.45-21.825V277.74H173.361z M155.225,372.787
	c0.538,0.756,1.171,1.45,1.913,2.04l33.959,27c1.77,1.407,3.963,2.173,6.224,2.173h67.041c19.575,0,35.5-15.925,35.5-35.5
	c0-5.522-4.477-10-10-10H244.83l45.3-45.3c3.905-3.905,3.905-10.237,0-14.143c-3.905-3.904-10.237-3.904-14.143,0l-52.906,52.906
	l-16.22-14.448v-3.018l85.35-85.35l37.753,15.616c5.27,2.179,8.675,7.272,8.675,12.976v71.617l-18.474,18.474
	c-3.905,3.905-3.906,10.237,0,14.143c1.953,1.952,4.512,2.929,7.071,2.929c2.559,0,5.119-0.977,7.071-2.929l13.536-13.536
	l6.059,2.832c13.121,6.133,21.599,19.453,21.599,33.936v6.465l-7.842-3.082c-2.351-0.924-4.966-0.924-7.316,0l-10.353,4.069
	c-8.99,3.534-16.505,9.381-21.989,16.709c-5.484-7.328-12.999-13.175-21.989-16.709l-10.353-4.069c-2.351-0.924-4.966-0.924-7.316,0
	l-10.353,4.069c-8.99,3.534-16.505,9.381-21.989,16.709c-5.484-7.328-12.999-13.175-21.989-16.709l-10.353-4.069
	c-2.351-0.924-4.966-0.924-7.316,0l-10.353,4.069c-8.99,3.534-16.505,9.381-21.989,16.709c-5.484-7.328-12.999-13.175-21.989-16.709
	l-10.353-4.069c-2.351-0.924-4.966-0.924-7.316,0l-7.842,3.082v-6.465C136.5,391.813,143.759,379.427,155.225,372.787z M317.033,452
	h-50.067c2.376-9.327,9.046-17.076,18.34-20.729L292,428.64l6.693,2.631C307.987,434.924,314.657,442.673,317.033,452z M245.033,452
	h-50.067c2.376-9.327,9.046-17.076,18.34-20.729L220,428.64l6.693,2.631C235.987,434.924,242.657,442.673,245.033,452z
	 M141.307,431.271L148,428.64l6.693,2.631c9.294,3.653,15.964,11.402,18.34,20.729h-50.067
	C125.343,442.673,132.013,434.924,141.307,431.271z"/>
<path d="M307.85,291.34c2.63,0,5.21-1.07,7.07-2.93c1.86-1.86,2.93-4.44,2.93-7.07s-1.07-5.21-2.93-7.07
	c-1.86-1.859-4.44-2.93-7.07-2.93c-2.64,0-5.21,1.07-7.08,2.93c-1.86,1.86-2.92,4.44-2.92,7.07s1.06,5.21,2.92,7.07
	C302.64,290.27,305.21,291.34,307.85,291.34z"/>
<g>
</g>
<g>
</g>
<g>
</g>
<g>
</g>
<g>
</g>
<g>
</g>
<g>
</g>
<g>
</g>
<g>
</g>
<g>
</g>
<g>
</g>
<g>
</g>
<g>
</g>
<g>
</g>
<g>
</g>
</svg>
