<svg xmlns="http://www.w3.org/2000/svg" xmlns:xlink="http://www.w3.org/1999/xlink" version="1.1" id="Слой_1" x="0px" y="0px" viewBox="0 0 236.5 52.7" enable-background="new 0 0 236.5 52.7" xml:space="preserve">
<g>
	<path fill="#FFFFFF" d="M77.8,25.5c1.2,0.4,2.1,1.2,2.5,2.4c0.5,1.2,0.7,2.6,0.7,4.2c0,1.5-0.2,2.7-0.5,3.8c-0.3,1-0.8,1.9-1.3,2.5   c-0.6,0.6-1.3,1.1-2.1,1.4s-1.7,0.4-2.8,0.4h-5.6V12.2h5.7c1.2,0,2.1,0.2,3,0.5c0.8,0.3,1.5,0.8,2,1.4c0.5,0.6,0.8,1.3,1.1,2.2   c0.2,0.9,0.3,1.8,0.3,2.9c0,1.5-0.2,2.7-0.6,3.8C79.7,24.1,79,24.9,77.8,25.5L77.8,25.5z M79.1,19.2c0-1.8-0.4-3.1-1.1-4   c-0.7-0.9-2-1.4-3.9-1.4h-3.7v11h4.3c1.6,0,2.8-0.5,3.4-1.4C78.8,22.4,79.1,21,79.1,19.2z M79.4,32c0-1.9-0.4-3.3-1.1-4.3   c-0.7-1-1.8-1.5-3.4-1.5h-4.5v12.5h4c1,0,1.8-0.2,2.5-0.5c0.7-0.4,1.2-0.8,1.5-1.5c0.4-0.6,0.6-1.3,0.8-2.1   C79.3,33.8,79.4,32.9,79.4,32z"/>
	<path fill="#FFFFFF" d="M98,12.3V34c0,2.2-0.5,3.8-1.6,4.9c-1.1,1.1-2.6,1.7-4.4,1.7S88.6,40,87.5,39s-1.6-2.6-1.6-4.6V12.3h1.7   v22.1c0,1.4,0.4,2.5,1.1,3.3c0.8,0.8,1.8,1.3,3.2,1.3c1.5,0,2.6-0.4,3.3-1.3c0.7-0.9,1.1-2.1,1.1-3.5V12.3H98z"/>
	<path fill="#FFFFFF" d="M109.1,12.2c1.6,0,2.9,0.3,3.8,0.9c0.9,0.6,1.6,1.6,1.9,2.9c0.3,1,0.4,2.4,0.4,4.1c0,1.7,0,3.7,0,6.1   c0,2.3,0,4.3,0,6.1c0,1.8-0.1,3.1-0.4,4.1c-0.2,0.8-0.6,1.5-1,2c-0.4,0.5-0.9,0.9-1.4,1.2c-0.5,0.3-1.1,0.5-1.7,0.6   c-0.6,0.1-1.3,0.2-2,0.2h-5.4V12.2H109.1z M113.6,19.4c0-0.8-0.1-1.6-0.2-2.2c-0.1-0.7-0.4-1.3-0.7-1.8s-0.8-0.9-1.4-1.2   c-0.6-0.3-1.3-0.4-2.2-0.4h-4v24.9h4.1c1.6,0,2.7-0.4,3.4-1.3c0.7-0.9,1.1-2.2,1.1-4.2V19.4z"/>
	<path fill="#FFFFFF" d="M126.5,12.2c1.6,0,2.9,0.3,3.8,0.9c0.9,0.6,1.6,1.6,1.9,2.9c0.3,1,0.4,2.4,0.4,4.1c0,1.7,0,3.7,0,6.1   c0,2.3,0,4.3,0,6.1c0,1.8-0.1,3.1-0.4,4.1c-0.2,0.8-0.6,1.5-1,2c-0.4,0.5-0.9,0.9-1.4,1.2c-0.5,0.3-1.1,0.5-1.7,0.6   c-0.6,0.1-1.3,0.2-2,0.2h-5.4V12.2H126.5z M131,19.4c0-0.8-0.1-1.6-0.2-2.2c-0.1-0.7-0.4-1.3-0.7-1.8s-0.8-0.9-1.4-1.2   c-0.6-0.3-1.3-0.4-2.2-0.4h-4v24.9h4.1c1.6,0,2.7-0.4,3.4-1.3c0.7-0.9,1.1-2.2,1.1-4.2V19.4z"/>
	<path fill="#FFFFFF" d="M148.4,40.3V26.7h-8.6v13.6h-1.7V12.2h1.7v12.9h8.6V12.2h1.7v28.1H148.4z"/>
	<path fill="#FFFFFF" d="M166.4,40.3l-1.5-7.3h-7.5l-1.5,7.3h-1.6l5.9-28.1h1.9l6,28.1H166.4z M161,14.8l-1.4,7l-2,9.6h6.9l-2-9.7   L161,14.8L161,14.8z"/>
	<path fill="#FFFFFF" d="M177.4,12.2c1.3,0,2.5,0.2,3.4,0.6c0.9,0.4,1.6,0.9,2.1,1.6c0.5,0.7,0.9,1.5,1.1,2.5c0.2,1,0.3,2.1,0.3,3.2   c0,1.2-0.1,2.3-0.3,3.3c-0.2,1-0.6,1.9-1.1,2.6c-0.5,0.7-1.2,1.3-2.1,1.7c-0.9,0.4-2,0.6-3.4,0.6h-3.5v11.9h-1.7v-28H177.4z    M173.8,26.7h3.4c2,0,3.5-0.6,4.2-1.7c0.8-1.1,1.2-2.7,1.2-4.9c0-0.9-0.1-1.8-0.2-2.5c-0.2-0.8-0.4-1.5-0.8-2   c-0.4-0.6-0.9-1-1.6-1.3c-0.7-0.3-1.6-0.5-2.6-0.5h-3.4V26.7z"/>
	<path fill="#FFFFFF" d="M189.3,40.3V12.2h1.7v28.1H189.3z"/>
	<path fill="#FFFFFF" d="M206.5,13.8l-9.1,24.9h8.6v1.6h-10.3v-1.6l9.1-24.9h-8.3v-1.6h10V13.8z"/>
	<path fill="#FFFFFF" d="M220,13.8l-9.1,24.9h8.6v1.6h-10.3v-1.6l9.1-24.9H210v-1.6h10V13.8z"/>
	<path fill="#FFFFFF" d="M234.9,40.3l-1.5-7.3h-7.5l-1.5,7.3h-1.6l5.9-28.1h1.9l6,28.1H234.9z M229.5,14.8l-1.4,7l-2,9.6h6.9l-2-9.7   L229.5,14.8L229.5,14.8z"/>
</g>
<path fill="none" stroke="#FFFFFF" stroke-width="1.3" stroke-linecap="round" stroke-linejoin="round" stroke-miterlimit="10" d="  M43.7,17.9c0,0-3-10-13.4-10c-10.4,0-13.5,10-13.5,10"/>
<path fill="none" stroke="#FFFFFF" stroke-width="1.3" stroke-linecap="round" stroke-linejoin="round" stroke-miterlimit="10" d="  M16.7,17.9c0,0,4.4-4.9,13.5-4.9s13.5,4.9,13.5,4.9"/>
<path fill="none" stroke="#FFFFFF" stroke-width="1.3" stroke-linecap="round" stroke-linejoin="round" stroke-miterlimit="10" d="  M35.3,13.7c0.1,0.4,0.3,1,0.3,1.5c0,3.3-2.4,5.6-5.4,5.6s-5.4-2.3-5.4-5.5c0-0.7,0.1-1.2,0.3-1.5"/>
<path fill="none" stroke="#FFFFFF" stroke-width="1.3" stroke-linecap="round" stroke-linejoin="round" stroke-miterlimit="10" d="  M16.7,17.9c0,0,4.4,6,13.5,6s13.5-6,13.5-6"/>
<path fill="none" stroke="#FFFFFF" stroke-width="1.3" stroke-miterlimit="10" d="M58.4,4.6c0.6-0.9,1-1.9,0.4-3  c-0.6-1-2.9-0.9-2.9-0.9h-52C3.5,0.6,1.6,0.5,1,1.5C0.4,2.5,0.7,3.4,1.2,4.3l0,0l26.4,45.9c0,0,0.9,1.8,2.2,1.8  c1.3,0,2.4-2.1,2.4-2.1l0,0L58.4,4.6L58.4,4.6z"/>
<path fill="#FFFFFF" d="M32.7,14.3c-0.1-0.3-0.4-0.6-0.6-0.9h-3.7c-0.3,0.2-0.5,0.5-0.7,0.9c-0.2,0.4-0.3,0.7-0.3,1.2  c0,1.5,1.2,2.8,2.7,2.8s2.7-1.2,2.7-2.8C33,15,32.9,14.6,32.7,14.3z M31.4,15.9c-0.5,0-1-0.4-1-1c0-0.5,0.4-1,1-1c0.5,0,1,0.4,1,1  C32.3,15.5,31.9,15.9,31.4,15.9z"/>
</svg>